<?xml version="1.0" encoding="UTF-8" standalone="no"?><!DOCTYPE svg PUBLIC "-//W3C//DTD SVG 1.1//EN" "http://www.w3.org/Graphics/SVG/1.1/DTD/svg11.dtd"><svg width="100%" height="100%" viewBox="0 0 256 178" version="1.1" xmlns="http://www.w3.org/2000/svg" xmlns:xlink="http://www.w3.org/1999/xlink" xml:space="preserve" xmlns:serif="http://www.serif.com/" style="fill-rule:evenodd;clip-rule:evenodd;stroke-linejoin:round;stroke-miterlimit:2;"><path d="M238.5,175.566c7.727,0 14,-6.273 14,-14l0,-145.132c0,-7.727 -6.273,-14 -14,-14l-221,0c-7.727,0 -14,6.273 -14,14l0,145.132c0,7.727 6.273,14 14,14l221,0Zm0,-10l-221,0c-2.208,0 -4,-1.792 -4,-4l0,-145.132c0,-2.208 1.792,-4 4,-4l221,0c2.208,0 4,1.792 4,4l0,145.132c0,2.208 -1.792,4 -4,4Z" style="fill:#fff;"/><path d="M135.261,97.699l-110.522,-63.809l-5,8.66l105.325,60.809c2.868,1.656 6.541,0.672 8.197,-2.196l2,-3.464Z" style="fill:#fff;"/><path d="M233.053,33.89l-111.053,64.116l2,3.464c1.656,2.868 5.328,3.852 8.196,2.197l105.857,-61.117l-5,-8.66Z" style="fill:#fff;"/></svg>