<?xml version="1.0" encoding="UTF-8" standalone="no"?><!DOCTYPE svg PUBLIC "-//W3C//DTD SVG 1.1//EN" "http://www.w3.org/Graphics/SVG/1.1/DTD/svg11.dtd"><svg width="100%" height="100%" viewBox="0 0 500 500" version="1.1" xmlns="http://www.w3.org/2000/svg" xmlns:xlink="http://www.w3.org/1999/xlink" xml:space="preserve" xmlns:serif="http://www.serif.com/" style="fill-rule:evenodd;clip-rule:evenodd;stroke-linejoin:round;stroke-miterlimit:2;"><path d="M125.22,463.026l-0,-298.928l-99.36,0l0,298.928l99.368,0l-0.008,0Zm-49.663,-339.734c34.642,0 56.209,-22.956 56.209,-51.642c-0.651,-29.337 -21.567,-51.65 -55.549,-51.65c-34.008,-0 -56.217,22.313 -56.217,51.65c0,28.686 21.558,51.642 54.906,51.642l0.651,0Zm104.656,339.734l99.35,0l-0,-166.915c-0,-8.925 0.651,-17.868 3.273,-24.241c7.18,-17.859 23.529,-36.343 50.982,-36.343c35.944,-0 50.331,27.409 50.331,67.599l-0,159.9l99.35,0l-0,-171.395c-0,-91.814 -49.011,-134.539 -114.379,-134.539c-53.595,-0 -77.133,29.953 -90.208,50.357l0.66,-0l-0,-43.342l-99.351,0c1.294,28.044 -0.008,298.928 -0.008,298.928l-0,-0.009Z" style="fill:#fff;fill-rule:nonzero;"/></svg>