<?xml version="1.0" encoding="UTF-8" standalone="no"?><!DOCTYPE svg PUBLIC "-//W3C//DTD SVG 1.1//EN" "http://www.w3.org/Graphics/SVG/1.1/DTD/svg11.dtd"><svg width="100%" height="100%" viewBox="0 0 1024 400" version="1.1" xmlns="http://www.w3.org/2000/svg" xmlns:xlink="http://www.w3.org/1999/xlink" xml:space="preserve" xmlns:serif="http://www.serif.com/" style="fill-rule:evenodd;clip-rule:evenodd;stroke-linejoin:round;stroke-miterlimit:2;"><path d="M212.976,181.06l-81.743,-0c-2.11,-0 -3.822,1.712 -3.822,3.821l-0,39.966c-0,2.109 1.712,3.827 3.822,3.827l31.887,-0l0,49.653c0,0 -7.159,2.442 -26.956,2.442c-23.353,-0 -55.978,-8.535 -55.978,-80.277c-0,-71.757 33.972,-81.196 65.866,-81.196c27.607,0 39.501,4.859 47.068,7.203c2.38,0.727 4.578,-1.642 4.578,-3.751l9.12,-38.616c0,-0.988 -0.334,-2.174 -1.458,-2.981c-3.073,-2.196 -21.825,-12.686 -69.196,-12.686c-54.569,0 -110.547,23.216 -110.547,134.825c0,111.613 64.089,128.245 118.096,128.245c44.716,-0 71.842,-19.108 71.842,-19.108c1.118,-0.619 1.24,-2.182 1.24,-2.898l-0,-124.648c-0,-2.109 -1.71,-3.821 -3.819,-3.821" style="fill:#fff;fill-rule:nonzero;"/><path d="M634.248,81.839c0,-2.128 -1.685,-3.843 -3.795,-3.843l-46.026,-0c-2.104,-0 -3.81,1.715 -3.81,3.843c-0,0.008 0.01,88.946 0.01,88.946l-71.742,0l-0,-88.946c-0,-2.128 -1.694,-3.843 -3.8,-3.843l-46.024,-0c-2.093,-0 -3.8,1.715 -3.8,3.843l0,240.844c0,2.126 1.707,3.854 3.8,3.854l46.024,0c2.106,0 3.8,-1.728 3.8,-3.854l-0,-103.02l71.742,0c0,0 -0.124,103.012 -0.124,103.02c0,2.126 1.704,3.854 3.814,3.854l46.134,0c2.106,0 3.792,-1.728 3.797,-3.854l0,-240.844Z" style="fill:#fff;fill-rule:nonzero;"/><path d="M299.83,113.441c0,-16.572 -13.288,-29.965 -29.681,-29.965c-16.378,-0 -29.673,13.393 -29.673,29.965c-0,16.558 13.295,29.989 29.673,29.989c16.393,-0 29.681,-13.431 29.681,-29.989" style="fill:#fff;fill-rule:nonzero;"/><path d="M296.539,320.353l-0,-159.649c-0,-2.112 -1.702,-3.838 -3.808,-3.838l-45.881,0c-2.106,0 -3.989,2.172 -3.989,4.281l0,159.282c0,4.68 2.917,6.074 6.693,6.074l41.337,0c4.535,0 5.648,-2.231 5.648,-6.15Z" style="fill:#fff;fill-rule:nonzero;"/><path d="M809.169,157.228l-45.672,-0c-2.096,-0 -3.8,1.728 -3.8,3.854l-0,118.09c-0,-0 -11.605,8.491 -28.075,8.491c-16.469,0 -20.839,-7.473 -20.839,-23.596l0,-102.985c0,-2.126 -1.701,-3.854 -3.797,-3.854l-46.355,-0c-2.091,-0 -3.806,1.728 -3.806,3.854l0,110.779c0,47.9 26.694,59.619 63.416,59.619c30.13,-0 54.421,-16.647 54.421,-16.647c-0,-0 1.153,8.772 1.679,9.811c0.522,1.037 1.886,2.088 3.36,2.088l29.49,-0.132c2.09,-0 3.805,-1.729 3.805,-3.846l-0.016,-161.672c-0,-2.126 -1.707,-3.854 -3.811,-3.854" style="fill:#fff;fill-rule:nonzero;"/><path d="M915.988,287.518c-15.842,-0.484 -26.588,-7.673 -26.588,-7.673l-0,-76.269c-0,-0 10.6,-6.498 23.607,-7.66c16.447,-1.474 32.295,3.495 32.295,42.729c0,41.375 -7.151,49.54 -29.314,48.873m18.014,-135.699c-25.94,-0 -43.584,11.572 -43.584,11.572l-0,-81.551c-0,-2.129 -1.702,-3.844 -3.797,-3.844l-46.159,0c-2.098,0 -3.803,1.715 -3.803,3.844l0,240.844c0,2.126 1.705,3.851 3.808,3.851l32.026,0c1.442,0 2.533,-0.742 3.341,-2.044c0.796,-1.294 1.944,-11.105 1.944,-11.105c0,-0 18.873,17.887 54.601,17.887c41.948,-0 66.004,-21.277 66.004,-95.515c-0,-74.238 -38.421,-83.939 -64.381,-83.939" style="fill:#fff;fill-rule:nonzero;"/><path d="M428.821,156.845l-34.526,0c-0,0 -0.051,-45.602 -0.051,-45.613c-0,-1.725 -0.889,-2.59 -2.888,-2.59l-47.047,0c-1.828,0 -2.811,0.805 -2.811,2.566l-0,47.133c-0,0 -23.578,5.691 -25.171,6.15c-1.588,0.462 -2.757,1.926 -2.757,3.67l-0,29.62c-0,2.13 1.701,3.851 3.805,3.851l24.123,-0l-0,71.256c-0,52.924 37.124,58.123 62.174,58.123c11.448,0 25.141,-3.676 27.402,-4.51c1.366,-0.502 2.163,-1.92 2.163,-3.454l0.038,-32.582c-0,-2.126 -1.796,-3.846 -3.816,-3.846c-2.012,-0 -7.16,0.818 -12.459,0.818c-16.958,0 -22.705,-7.883 -22.705,-18.092c-0,-10.198 -0.003,-67.713 -0.003,-67.713l34.529,-0c2.104,-0 3.811,-1.721 3.811,-3.851l0,-37.098c0,-2.125 -1.707,-3.838 -3.811,-3.838" style="fill:#fff;fill-rule:nonzero;"/></svg>